<?xml version="1.0" encoding="UTF-8" standalone="no"?>
<!-- Created with Inkscape (http://www.inkscape.org/) -->

<svg
   xmlns:dc="http://purl.org/dc/elements/1.1/"
   xmlns:cc="http://creativecommons.org/ns#"
   xmlns:rdf="http://www.w3.org/1999/02/22-rdf-syntax-ns#"
   xmlns:svg="http://www.w3.org/2000/svg"
   xmlns="http://www.w3.org/2000/svg"
   xmlns:xlink="http://www.w3.org/1999/xlink"
   xmlns:sodipodi="http://sodipodi.sourceforge.net/DTD/sodipodi-0.dtd"
   xmlns:inkscape="http://www.inkscape.org/namespaces/inkscape"
   width="240"
   height="250"
   id="svg2"
   version="1.1"
   inkscape:version="0.48.3.1 r9886"
   sodipodi:docname="New document 1">
  <defs
     id="defs4">
    <linearGradient
       inkscape:collect="always"
       id="linearGradient3935">
      <stop
         style="stop-color:#000000;stop-opacity:1;"
         offset="0"
         id="stop3937" />
      <stop
         style="stop-color:#000000;stop-opacity:0;"
         offset="1"
         id="stop3939" />
    </linearGradient>
    <linearGradient
       id="linearGradient3913">
      <stop
         style="stop-color:#000000;stop-opacity:1;"
         offset="0"
         id="stop3915" />
      <stop
         style="stop-color:#ffa500;stop-opacity:1;"
         offset="1"
         id="stop3917" />
    </linearGradient>
    <linearGradient
       id="linearGradient3863">
      <stop
         style="stop-color:#000000;stop-opacity:1;"
         offset="0"
         id="stop3865" />
      <stop
         style="stop-color:#ffe000;stop-opacity:1;"
         offset="1"
         id="stop3867" />
    </linearGradient>
    <linearGradient
       id="linearGradient3847">
      <stop
         style="stop-color:#ff0808;stop-opacity:1;"
         offset="0"
         id="stop3849" />
      <stop
         style="stop-color:#000000;stop-opacity:1;"
         offset="1"
         id="stop3851" />
    </linearGradient>
    <linearGradient
       id="linearGradient3783">
      <stop
         style="stop-color:#000000;stop-opacity:1;"
         offset="0"
         id="stop3785" />
      <stop
         style="stop-color:#ffffff;stop-opacity:1;"
         offset="1"
         id="stop3787" />
    </linearGradient>
    <linearGradient
       inkscape:collect="always"
       xlink:href="#linearGradient3783"
       id="linearGradient3789"
       x1="230"
       y1="892.36218"
       x2="340"
       y2="872.36218"
       gradientUnits="userSpaceOnUse"
       gradientTransform="translate(-180,40.000003)" />
    <linearGradient
       inkscape:collect="always"
       xlink:href="#linearGradient3783"
       id="linearGradient3797"
       x1="240"
       y1="922.36218"
       x2="350"
       y2="902.36218"
       gradientUnits="userSpaceOnUse"
       gradientTransform="translate(-180,40.000003)" />
    <linearGradient
       inkscape:collect="always"
       xlink:href="#linearGradient3783"
       id="linearGradient3805"
       x1="270"
       y1="902.36218"
       x2="340"
       y2="892.36218"
       gradientUnits="userSpaceOnUse"
       gradientTransform="translate(-180,40.000003)" />
    <linearGradient
       inkscape:collect="always"
       xlink:href="#linearGradient3783"
       id="linearGradient3813"
       x1="260"
       y1="912.36218"
       x2="370"
       y2="902.36218"
       gradientUnits="userSpaceOnUse"
       gradientTransform="translate(-180,40.000003)" />
    <linearGradient
       inkscape:collect="always"
       xlink:href="#linearGradient3783"
       id="linearGradient3821"
       x1="170"
       y1="982.36218"
       x2="260"
       y2="959.31262"
       gradientUnits="userSpaceOnUse"
       gradientTransform="translate(-180,40.000003)" />
    <linearGradient
       inkscape:collect="always"
       xlink:href="#linearGradient3783"
       id="linearGradient3829"
       x1="330"
       y1="962.36218"
       x2="390"
       y2="952.36218"
       gradientUnits="userSpaceOnUse"
       gradientTransform="translate(-180,40.000003)" />
    <linearGradient
       inkscape:collect="always"
       xlink:href="#linearGradient3783"
       id="linearGradient3837"
       x1="180"
       y1="972.36218"
       x2="207.14928"
       y2="962.45593"
       gradientUnits="userSpaceOnUse"
       gradientTransform="translate(-180,40.000003)" />
    <linearGradient
       inkscape:collect="always"
       xlink:href="#linearGradient3783"
       id="linearGradient3845"
       x1="380"
       y1="972.36218"
       x2="410"
       y2="962.36218"
       gradientUnits="userSpaceOnUse"
       gradientTransform="translate(-180,40.000003)" />
    <linearGradient
       inkscape:collect="always"
       xlink:href="#linearGradient3847"
       id="linearGradient3853"
       x1="360"
       y1="862.36218"
       x2="280"
       y2="892.36218"
       gradientUnits="userSpaceOnUse"
       gradientTransform="translate(-180,40.000003)" />
    <linearGradient
       inkscape:collect="always"
       xlink:href="#linearGradient3847"
       id="linearGradient3861"
       x1="290"
       y1="862.36218"
       x2="210"
       y2="882.36218"
       gradientUnits="userSpaceOnUse"
       gradientTransform="translate(-180,40.000003)" />
    <linearGradient
       inkscape:collect="always"
       xlink:href="#linearGradient3863"
       id="linearGradient3869"
       x1="160"
       y1="972.36218"
       x2="280.0979"
       y2="952.36218"
       gradientUnits="userSpaceOnUse"
       gradientTransform="translate(-180,40.000003)" />
    <linearGradient
       inkscape:collect="always"
       xlink:href="#linearGradient3863"
       id="linearGradient3877"
       x1="290"
       y1="972.36218"
       x2="390"
       y2="942.36218"
       gradientUnits="userSpaceOnUse"
       gradientTransform="translate(-180,40.000003)" />
    <linearGradient
       inkscape:collect="always"
       xlink:href="#linearGradient3783"
       id="linearGradient3887"
       x1="300"
       y1="902.36218"
       x2="330"
       y2="892.36218"
       gradientUnits="userSpaceOnUse"
       gradientTransform="translate(-180,10.000006)" />
    <linearGradient
       inkscape:collect="always"
       xlink:href="#linearGradient3783"
       id="linearGradient3891"
       gradientUnits="userSpaceOnUse"
       x1="320"
       y1="892.36218"
       x2="250"
       y2="872.36218"
       gradientTransform="matrix(-1,0,0,1,420,10.000008)" />
    <linearGradient
       inkscape:collect="always"
       xlink:href="#linearGradient3783"
       id="linearGradient3905"
       gradientUnits="userSpaceOnUse"
       x1="290"
       y1="787.36218"
       x2="320"
       y2="782.36218"
       gradientTransform="matrix(0.5,0,0,1,-5,70.000009)" />
    <linearGradient
       inkscape:collect="always"
       xlink:href="#linearGradient3783"
       id="linearGradient3909"
       gradientUnits="userSpaceOnUse"
       gradientTransform="matrix(0.5,0,0,1,-55,70.000012)"
       x1="290"
       y1="787.36218"
       x2="320"
       y2="782.36218" />
    <linearGradient
       inkscape:collect="always"
       xlink:href="#linearGradient3913"
       id="linearGradient3919"
       x1="270"
       y1="942.36218"
       x2="310"
       y2="932.36218"
       gradientUnits="userSpaceOnUse"
       gradientTransform="translate(-180,40.000003)" />
    <linearGradient
       inkscape:collect="always"
       xlink:href="#linearGradient3783"
       id="linearGradient3925"
       gradientUnits="userSpaceOnUse"
       gradientTransform="matrix(0.5,0,0,1,15,100.00001)"
       x1="290"
       y1="787.36218"
       x2="320"
       y2="782.36218" />
    <linearGradient
       inkscape:collect="always"
       xlink:href="#linearGradient3783"
       id="linearGradient3929"
       gradientUnits="userSpaceOnUse"
       gradientTransform="matrix(0.5,0,0,1,-75,100.00001)"
       x1="290"
       y1="787.36218"
       x2="320"
       y2="782.36218" />
    <linearGradient
       inkscape:collect="always"
       xlink:href="#linearGradient3935"
       id="linearGradient3941"
       x1="130"
       y1="862.36218"
       x2="320"
       y2="852.36218"
       gradientUnits="userSpaceOnUse"
       gradientTransform="translate(-180,40.000003)" />
    <linearGradient
       inkscape:collect="always"
       xlink:href="#linearGradient3935"
       id="linearGradient3945"
       gradientUnits="userSpaceOnUse"
       x1="-80"
       y1="802.36218"
       x2="300"
       y2="882.36218"
       gradientTransform="matrix(-1,0,0,1,420,40.000005)" />
  </defs>
  <sodipodi:namedview
     id="base"
     pagecolor="#ffffff"
     bordercolor="#666666"
     borderopacity="1.0"
     inkscape:pageopacity="0.0"
     inkscape:pageshadow="2"
     inkscape:zoom="1.4"
     inkscape:cx="243.65788"
     inkscape:cy="237.15729"
     inkscape:document-units="px"
     inkscape:current-layer="layer1"
     showgrid="true"
     inkscape:window-width="1855"
     inkscape:window-height="1056"
     inkscape:window-x="65"
     inkscape:window-y="24"
     inkscape:window-maximized="1">
    <inkscape:grid
       type="xygrid"
       id="grid2985"
       empspacing="5"
       visible="true"
       enabled="true"
       snapvisiblegridlinesonly="true" />
  </sodipodi:namedview>
  <metadata
     id="metadata7">
    <rdf:RDF>
      <cc:Work
         rdf:about="">
        <dc:format>image/svg+xml</dc:format>
        <dc:type
           rdf:resource="http://purl.org/dc/dcmitype/StillImage" />
        <dc:title></dc:title>
      </cc:Work>
    </rdf:RDF>
  </metadata>
  <g
     inkscape:label="Layer 1"
     inkscape:groupmode="layer"
     id="layer1"
     transform="translate(0,-802.36218)">
    <path
       inkscape:connector-curvature="0"
       id="path3927"
       d="m 70,862.36218 10,0 0,50 -10,0 z"
       style="fill:url(#linearGradient3929);fill-opacity:1;stroke:none" />
    <path
       style="fill:url(#linearGradient3925);fill-opacity:1;stroke:none"
       d="m 160,862.36218 10,0 0,50 -10,0 z"
       id="path3923"
       inkscape:connector-curvature="0" />
    <path
       style="fill:url(#linearGradient3909);fill-opacity:1;stroke:none"
       d="m 90,832.36218 10,0 0,50 -10,0 z"
       id="path3907"
       inkscape:connector-curvature="0" />
    <path
       inkscape:connector-curvature="0"
       id="path3903"
       d="m 140,832.36218 10,0 0,50 -10,0 z"
       style="fill:url(#linearGradient3905);fill-opacity:1;stroke:none" />
    <path
       sodipodi:nodetypes="ccccc"
       inkscape:connector-curvature="0"
       id="path3013"
       d="m 160,872.36218 c 9.2017,18.10361 12.32087,47.15577 30,50 -9.5238,10 -9.52381,20 0,30 -7.71836,15.08912 -25.18804,15.55127 -40,20 -2.26857,-40.80254 0.8409,-74.43435 10,-100 z"
       style="fill:url(#linearGradient3853);fill-opacity:1;stroke:none" />
    <path
       style="fill:url(#linearGradient3861);fill-opacity:1;stroke:none"
       d="m 80,872.36218 c -9.2017,18.10361 -12.32087,47.15577 -30,50 9.5238,10 9.52381,20 0,30 7.71836,15.08912 25.18804,15.55127 40,20 2.26857,-40.80254 -0.8409,-74.43435 -10,-100 z"
       id="path3011"
       inkscape:connector-curvature="0"
       sodipodi:nodetypes="ccccc" />
    <path
       sodipodi:nodetypes="cccccc"
       inkscape:connector-curvature="0"
       id="path3009"
       d="m 120,812.36218 c -8.12213,3.91263 -19.31043,19.57888 -50,110 8.02475,9.19752 10.92791,18.90721 0,30 29.56646,44.90277 20.13561,40.1726 30,60.00002 2.36349,9.0709 12.37867,7.9395 20,10 z"
       style="fill:url(#linearGradient3797);fill-opacity:1;stroke:none" />
    <path
       style="fill:url(#linearGradient3789);fill-opacity:1;stroke:none"
       d="m 120,812.36218 c 8.12213,3.91263 19.31043,19.57888 50,110 -8.02475,9.19752 -10.92791,18.90721 0,30 -29.56646,44.90277 -20.13561,40.1726 -30,60.00002 -2.36349,9.0709 -12.37867,7.9395 -20,10 z"
       id="path3007"
       inkscape:connector-curvature="0"
       sodipodi:nodetypes="cccccc" />
    <path
       style="fill:url(#linearGradient3877);fill-opacity:1;stroke:none"
       d="m 150,962.36218 -10,20 c -1.29662,15.13483 10.37208,24.37632 30,30.00002 34.34368,-8.4514 36.37859,4.6365 50,10 2.86281,-9.2255 2.26868,-18.8831 -10,-30.00002 -36.75378,1.59877 -47.15236,-15.04836 -60,-30 z"
       id="path2991"
       inkscape:connector-curvature="0"
       sodipodi:nodetypes="cccccc" />
    <path
       sodipodi:nodetypes="cccccc"
       inkscape:connector-curvature="0"
       id="path3001"
       d="m 90,962.36218 10,20 c 1.29662,15.13483 -10.37208,24.37632 -30,30.00002 -34.34368,-8.4514 -36.37859,4.6365 -50,10 -2.86281,-9.2255 -2.26868,-18.8831 10,-30.00002 36.75378,1.59877 47.15236,-15.04836 60,-30 z"
       style="fill:url(#linearGradient3869);fill-opacity:1;stroke:none" />
    <path
       sodipodi:nodetypes="ccccc"
       inkscape:connector-curvature="0"
       id="path3003"
       d="m 40,962.36218 c 14.08887,-1.98327 34.93312,-21.69944 40,0 l 0,70.00002 c -16.61909,6.9001 -39.86656,27.7197 -40,0 z"
       style="fill:url(#linearGradient3821);fill-opacity:1;stroke:none" />
    <path
       style="fill:url(#linearGradient3829);fill-opacity:1;stroke:none"
       d="m 200,962.36218 c -14.08887,-1.98327 -34.93312,-21.69944 -40,0 l 0,70.00002 c 16.61909,6.9001 39.86656,27.7197 40,0 z"
       id="path2993"
       inkscape:connector-curvature="0"
       sodipodi:nodetypes="ccccc" />
    <path
       style="fill:url(#linearGradient3845);fill-opacity:1;stroke:none"
       d="m 220,972.36218 c 3.04894,7.6454 5.21212,-2.42434 10,40.00002 0.38487,20.3001 -4.80741,20.1506 -10,20 -13.57714,3.0811 -4.44884,-32.437 0,-60.00002 z"
       id="path2995"
       inkscape:connector-curvature="0"
       sodipodi:nodetypes="cccc" />
    <path
       sodipodi:nodetypes="cccc"
       inkscape:connector-curvature="0"
       id="path3005"
       d="m 20,972.36218 c -3.04894,7.6454 -5.21211,-2.42434 -10,40.00002 -0.38487,20.3001 4.80741,20.1506 10,20 13.57714,3.0811 4.44884,-32.437 0,-60.00002 z"
       style="fill:url(#linearGradient3837);fill-opacity:1;stroke:none" />
    <path
       sodipodi:nodetypes="ccccc"
       inkscape:connector-curvature="0"
       id="path2999"
       d="m 120,872.36218 c -6.49799,9.37822 -8.40047,-2.66322 -20,47.27272 -14.11091,20.38927 -16.83786,35.88625 -10,47.27274 5.47991,36.74716 19.39733,26.96022 30,35.45456 z"
       style="fill:url(#linearGradient3813);fill-opacity:1;stroke:none" />
    <path
       style="fill:url(#linearGradient3805);fill-opacity:1;stroke:none"
       d="m 120,872.36218 c 6.49799,9.37821 8.40048,-2.66322 20,47.27272 14.11091,20.38927 16.83786,35.88625 10,47.27274 -5.47991,36.74716 -19.39732,26.96022 -30,35.45456 z"
       id="path2989"
       inkscape:connector-curvature="0"
       sodipodi:nodetypes="ccccc" />
    <path
       style="fill:url(#linearGradient3887);fill-opacity:1;stroke:none"
       d="m 120,912.36218 c 6.74989,-1.03317 17.66518,-3.42517 10,-30 l -10,-10 z"
       id="path3879"
       inkscape:connector-curvature="0"
       sodipodi:nodetypes="cccc" />
    <path
       sodipodi:nodetypes="cccc"
       inkscape:connector-curvature="0"
       id="path3889"
       d="m 120,912.36218 c -6.74989,-1.03317 -17.66518,-3.42517 -10,-30 l 10,-10 z"
       style="fill:url(#linearGradient3891);fill-opacity:1;stroke:none" />
    <path
       style="fill:#000000;fill-opacity:0.41095892;stroke:none"
       d="m 120,922.36218 -20,40 0,50.00002 20,10 z"
       id="path3921"
       inkscape:connector-curvature="0" />
    <path
       style="fill:none;stroke:url(#linearGradient3919);stroke-width:5;stroke-miterlimit:4;stroke-opacity:1;stroke-dasharray:none"
       d="m 120,922.36218 0,120.00002"
       id="path3911"
       inkscape:connector-curvature="0" />
    <path
       style="fill:url(#linearGradient3941);fill-opacity:1;stroke:none"
       d="m 120,832.36218 0,30 c -14.41098,4.23699 -27.48633,44.53577 -40,100 3.38649,-32.88915 0.18382,-58.85968 40,-130 z"
       id="path3933"
       inkscape:connector-curvature="0"
       sodipodi:nodetypes="cccc" />
    <path
       sodipodi:nodetypes="cccc"
       inkscape:connector-curvature="0"
       id="path3943"
       d="m 120,832.36218 0,30 c 14.41098,4.23699 27.48633,44.53577 40,100 -3.38649,-32.88915 -0.18382,-58.85968 -40,-130 z"
       style="fill:url(#linearGradient3945);fill-opacity:1;stroke:none" />
  </g>
</svg>
